<mxfile host="app.diagrams.net" modified="2021-10-17T20:40:51.863Z" agent="5.0 (Macintosh; Intel Mac OS X 10_15_7) AppleWebKit/537.36 (KHTML, like Gecko) Chrome/94.0.4606.61 Safari/537.36" etag="m8jUf7BYSKAsQHdisgsM" version="15.5.4" type="github" pages="4">
  <diagram id="R2lEEEUBdFMjLlhIrx00" name="Page-1">
    <mxGraphModel dx="1313" dy="802" grid="1" gridSize="10" guides="1" tooltips="1" connect="1" arrows="1" fold="1" page="1" pageScale="1" pageWidth="1654" pageHeight="1169" math="0" shadow="0" extFonts="Permanent Marker^https://fonts.googleapis.com/css?family=Permanent+Marker">
      <root>
        <mxCell id="0" />
        <mxCell id="1" parent="0" />
        <mxCell id="ZDVERSF9xxn52L0sMMYu-4" style="edgeStyle=orthogonalEdgeStyle;rounded=0;orthogonalLoop=1;jettySize=auto;html=1;entryX=0;entryY=0.5;entryDx=0;entryDy=0;startArrow=none;startFill=0;endArrow=none;endFill=0;" edge="1" parent="1" source="ZDVERSF9xxn52L0sMMYu-1" target="ZDVERSF9xxn52L0sMMYu-3">
          <mxGeometry relative="1" as="geometry" />
        </mxCell>
        <mxCell id="f4rKKs7WJ_RBVfQn1E0o-5" value="M" style="edgeLabel;html=1;align=center;verticalAlign=middle;resizable=0;points=[];" vertex="1" connectable="0" parent="ZDVERSF9xxn52L0sMMYu-4">
          <mxGeometry x="-0.7503" relative="1" as="geometry">
            <mxPoint as="offset" />
          </mxGeometry>
        </mxCell>
        <mxCell id="f4rKKs7WJ_RBVfQn1E0o-31" style="edgeStyle=orthogonalEdgeStyle;rounded=0;orthogonalLoop=1;jettySize=auto;html=1;entryX=0.5;entryY=0;entryDx=0;entryDy=0;startArrow=none;startFill=0;endArrow=none;endFill=0;" edge="1" parent="1" source="ZDVERSF9xxn52L0sMMYu-1" target="f4rKKs7WJ_RBVfQn1E0o-30">
          <mxGeometry relative="1" as="geometry" />
        </mxCell>
        <mxCell id="f4rKKs7WJ_RBVfQn1E0o-34" value="N" style="edgeLabel;html=1;align=center;verticalAlign=middle;resizable=0;points=[];" vertex="1" connectable="0" parent="f4rKKs7WJ_RBVfQn1E0o-31">
          <mxGeometry x="-0.9054" y="1" relative="1" as="geometry">
            <mxPoint as="offset" />
          </mxGeometry>
        </mxCell>
        <mxCell id="ZDVERSF9xxn52L0sMMYu-1" value="Proyectos" style="whiteSpace=wrap;html=1;align=center;" vertex="1" parent="1">
          <mxGeometry x="380" y="315" width="100" height="40" as="geometry" />
        </mxCell>
        <mxCell id="f4rKKs7WJ_RBVfQn1E0o-8" style="edgeStyle=orthogonalEdgeStyle;rounded=0;orthogonalLoop=1;jettySize=auto;html=1;entryX=0.5;entryY=0;entryDx=0;entryDy=0;startArrow=none;startFill=0;endArrow=none;endFill=0;" edge="1" parent="1" source="ZDVERSF9xxn52L0sMMYu-2" target="f4rKKs7WJ_RBVfQn1E0o-7">
          <mxGeometry relative="1" as="geometry" />
        </mxCell>
        <mxCell id="f4rKKs7WJ_RBVfQn1E0o-11" value="1" style="edgeLabel;html=1;align=center;verticalAlign=middle;resizable=0;points=[];" vertex="1" connectable="0" parent="f4rKKs7WJ_RBVfQn1E0o-8">
          <mxGeometry x="-0.7926" relative="1" as="geometry">
            <mxPoint as="offset" />
          </mxGeometry>
        </mxCell>
        <mxCell id="f4rKKs7WJ_RBVfQn1E0o-14" style="edgeStyle=orthogonalEdgeStyle;rounded=0;orthogonalLoop=1;jettySize=auto;html=1;entryX=0.5;entryY=1;entryDx=0;entryDy=0;startArrow=none;startFill=0;endArrow=none;endFill=0;" edge="1" parent="1" source="ZDVERSF9xxn52L0sMMYu-2" target="f4rKKs7WJ_RBVfQn1E0o-12">
          <mxGeometry relative="1" as="geometry" />
        </mxCell>
        <mxCell id="f4rKKs7WJ_RBVfQn1E0o-15" style="edgeStyle=orthogonalEdgeStyle;rounded=0;orthogonalLoop=1;jettySize=auto;html=1;entryX=0;entryY=0.5;entryDx=0;entryDy=0;startArrow=none;startFill=0;endArrow=none;endFill=0;" edge="1" parent="1" source="ZDVERSF9xxn52L0sMMYu-2" target="f4rKKs7WJ_RBVfQn1E0o-13">
          <mxGeometry relative="1" as="geometry" />
        </mxCell>
        <mxCell id="ZDVERSF9xxn52L0sMMYu-2" value="Departamentos" style="whiteSpace=wrap;html=1;align=center;" vertex="1" parent="1">
          <mxGeometry x="710" y="315" width="100" height="40" as="geometry" />
        </mxCell>
        <mxCell id="ZDVERSF9xxn52L0sMMYu-5" style="edgeStyle=orthogonalEdgeStyle;rounded=0;orthogonalLoop=1;jettySize=auto;html=1;entryX=0;entryY=0.5;entryDx=0;entryDy=0;startArrow=none;startFill=0;endArrow=none;endFill=0;" edge="1" parent="1" source="ZDVERSF9xxn52L0sMMYu-3" target="ZDVERSF9xxn52L0sMMYu-2">
          <mxGeometry relative="1" as="geometry" />
        </mxCell>
        <mxCell id="ZDVERSF9xxn52L0sMMYu-7" value="N" style="edgeLabel;html=1;align=center;verticalAlign=middle;resizable=0;points=[];" vertex="1" connectable="0" parent="ZDVERSF9xxn52L0sMMYu-5">
          <mxGeometry x="0.8833" relative="1" as="geometry">
            <mxPoint x="-8" as="offset" />
          </mxGeometry>
        </mxCell>
        <mxCell id="ZDVERSF9xxn52L0sMMYu-3" value="Participa" style="shape=rhombus;perimeter=rhombusPerimeter;whiteSpace=wrap;html=1;align=center;" vertex="1" parent="1">
          <mxGeometry x="525" y="305" width="120" height="60" as="geometry" />
        </mxCell>
        <mxCell id="f4rKKs7WJ_RBVfQn1E0o-6" value="Empleados" style="whiteSpace=wrap;html=1;align=center;" vertex="1" parent="1">
          <mxGeometry x="710" y="545" width="100" height="40" as="geometry" />
        </mxCell>
        <mxCell id="f4rKKs7WJ_RBVfQn1E0o-9" style="edgeStyle=orthogonalEdgeStyle;rounded=0;orthogonalLoop=1;jettySize=auto;html=1;entryX=0.5;entryY=0;entryDx=0;entryDy=0;startArrow=none;startFill=0;endArrow=none;endFill=0;" edge="1" parent="1" source="f4rKKs7WJ_RBVfQn1E0o-7" target="f4rKKs7WJ_RBVfQn1E0o-6">
          <mxGeometry relative="1" as="geometry" />
        </mxCell>
        <mxCell id="f4rKKs7WJ_RBVfQn1E0o-10" value="N" style="edgeLabel;html=1;align=center;verticalAlign=middle;resizable=0;points=[];" vertex="1" connectable="0" parent="f4rKKs7WJ_RBVfQn1E0o-9">
          <mxGeometry x="0.7083" relative="1" as="geometry">
            <mxPoint as="offset" />
          </mxGeometry>
        </mxCell>
        <mxCell id="f4rKKs7WJ_RBVfQn1E0o-7" value="Trabajan" style="shape=rhombus;perimeter=rhombusPerimeter;whiteSpace=wrap;html=1;align=center;" vertex="1" parent="1">
          <mxGeometry x="700" y="415" width="120" height="60" as="geometry" />
        </mxCell>
        <mxCell id="f4rKKs7WJ_RBVfQn1E0o-12" value="Código" style="ellipse;whiteSpace=wrap;html=1;align=center;" vertex="1" parent="1">
          <mxGeometry x="710" y="180" width="100" height="40" as="geometry" />
        </mxCell>
        <mxCell id="f4rKKs7WJ_RBVfQn1E0o-13" value="&lt;u&gt;Nombre&lt;/u&gt;" style="ellipse;whiteSpace=wrap;html=1;align=center;" vertex="1" parent="1">
          <mxGeometry x="890" y="180" width="100" height="40" as="geometry" />
        </mxCell>
        <mxCell id="f4rKKs7WJ_RBVfQn1E0o-19" style="edgeStyle=orthogonalEdgeStyle;rounded=0;orthogonalLoop=1;jettySize=auto;html=1;entryX=0.5;entryY=0;entryDx=0;entryDy=0;startArrow=none;startFill=0;endArrow=none;endFill=0;" edge="1" parent="1" source="f4rKKs7WJ_RBVfQn1E0o-17" target="ZDVERSF9xxn52L0sMMYu-1">
          <mxGeometry relative="1" as="geometry" />
        </mxCell>
        <mxCell id="f4rKKs7WJ_RBVfQn1E0o-17" value="&lt;u&gt;Código&lt;/u&gt;" style="ellipse;whiteSpace=wrap;html=1;align=center;" vertex="1" parent="1">
          <mxGeometry x="350" y="160" width="100" height="40" as="geometry" />
        </mxCell>
        <mxCell id="f4rKKs7WJ_RBVfQn1E0o-20" style="edgeStyle=orthogonalEdgeStyle;rounded=0;orthogonalLoop=1;jettySize=auto;html=1;entryX=0.5;entryY=0;entryDx=0;entryDy=0;startArrow=none;startFill=0;endArrow=none;endFill=0;" edge="1" parent="1" source="f4rKKs7WJ_RBVfQn1E0o-18" target="ZDVERSF9xxn52L0sMMYu-1">
          <mxGeometry relative="1" as="geometry" />
        </mxCell>
        <mxCell id="f4rKKs7WJ_RBVfQn1E0o-18" value="Nombre" style="ellipse;whiteSpace=wrap;html=1;align=center;" vertex="1" parent="1">
          <mxGeometry x="470" y="160" width="100" height="40" as="geometry" />
        </mxCell>
        <mxCell id="f4rKKs7WJ_RBVfQn1E0o-23" style="edgeStyle=orthogonalEdgeStyle;rounded=0;orthogonalLoop=1;jettySize=auto;html=1;entryX=0;entryY=0.5;entryDx=0;entryDy=0;startArrow=none;startFill=0;endArrow=none;endFill=0;exitX=0.5;exitY=1;exitDx=0;exitDy=0;" edge="1" parent="1" source="f4rKKs7WJ_RBVfQn1E0o-21" target="ZDVERSF9xxn52L0sMMYu-1">
          <mxGeometry relative="1" as="geometry" />
        </mxCell>
        <mxCell id="f4rKKs7WJ_RBVfQn1E0o-21" value="Presupuesto" style="ellipse;whiteSpace=wrap;html=1;align=center;" vertex="1" parent="1">
          <mxGeometry x="230" y="200" width="100" height="40" as="geometry" />
        </mxCell>
        <mxCell id="f4rKKs7WJ_RBVfQn1E0o-24" style="edgeStyle=orthogonalEdgeStyle;rounded=0;orthogonalLoop=1;jettySize=auto;html=1;entryX=0;entryY=0.5;entryDx=0;entryDy=0;startArrow=none;startFill=0;endArrow=none;endFill=0;" edge="1" parent="1" source="f4rKKs7WJ_RBVfQn1E0o-22" target="ZDVERSF9xxn52L0sMMYu-1">
          <mxGeometry relative="1" as="geometry" />
        </mxCell>
        <mxCell id="f4rKKs7WJ_RBVfQn1E0o-22" value="Porcent_subvencionado" style="ellipse;whiteSpace=wrap;html=1;align=center;" vertex="1" parent="1">
          <mxGeometry x="220" y="430" width="160" height="45" as="geometry" />
        </mxCell>
        <mxCell id="f4rKKs7WJ_RBVfQn1E0o-28" style="edgeStyle=orthogonalEdgeStyle;rounded=0;orthogonalLoop=1;jettySize=auto;html=1;entryX=0.5;entryY=1;entryDx=0;entryDy=0;startArrow=none;startFill=0;endArrow=none;endFill=0;" edge="1" parent="1" source="f4rKKs7WJ_RBVfQn1E0o-25" target="f4rKKs7WJ_RBVfQn1E0o-6">
          <mxGeometry relative="1" as="geometry" />
        </mxCell>
        <mxCell id="f4rKKs7WJ_RBVfQn1E0o-25" value="&lt;u&gt;NIF&lt;/u&gt;" style="ellipse;whiteSpace=wrap;html=1;align=center;" vertex="1" parent="1">
          <mxGeometry x="485" y="600" width="160" height="45" as="geometry" />
        </mxCell>
        <mxCell id="f4rKKs7WJ_RBVfQn1E0o-29" style="edgeStyle=orthogonalEdgeStyle;rounded=0;orthogonalLoop=1;jettySize=auto;html=1;entryX=1;entryY=0.5;entryDx=0;entryDy=0;startArrow=none;startFill=0;endArrow=none;endFill=0;" edge="1" parent="1" source="f4rKKs7WJ_RBVfQn1E0o-27" target="f4rKKs7WJ_RBVfQn1E0o-6">
          <mxGeometry relative="1" as="geometry" />
        </mxCell>
        <mxCell id="f4rKKs7WJ_RBVfQn1E0o-27" value="Sueldo" style="ellipse;whiteSpace=wrap;html=1;align=center;" vertex="1" parent="1">
          <mxGeometry x="860" y="562" width="160" height="45" as="geometry" />
        </mxCell>
        <mxCell id="f4rKKs7WJ_RBVfQn1E0o-33" style="edgeStyle=orthogonalEdgeStyle;rounded=0;orthogonalLoop=1;jettySize=auto;html=1;entryX=0;entryY=0.5;entryDx=0;entryDy=0;startArrow=none;startFill=0;endArrow=none;endFill=0;" edge="1" parent="1" source="f4rKKs7WJ_RBVfQn1E0o-30" target="f4rKKs7WJ_RBVfQn1E0o-6">
          <mxGeometry relative="1" as="geometry" />
        </mxCell>
        <mxCell id="f4rKKs7WJ_RBVfQn1E0o-35" value="M" style="edgeLabel;html=1;align=center;verticalAlign=middle;resizable=0;points=[];" vertex="1" connectable="0" parent="f4rKKs7WJ_RBVfQn1E0o-33">
          <mxGeometry x="0.814" y="-1" relative="1" as="geometry">
            <mxPoint as="offset" />
          </mxGeometry>
        </mxCell>
        <mxCell id="f4rKKs7WJ_RBVfQn1E0o-30" value="Trabaja_en" style="shape=rhombus;perimeter=rhombusPerimeter;whiteSpace=wrap;html=1;align=center;" vertex="1" parent="1">
          <mxGeometry x="460" y="450" width="120" height="60" as="geometry" />
        </mxCell>
        <mxCell id="f4rKKs7WJ_RBVfQn1E0o-40" value="Proyectos&lt;br&gt;Cod.&amp;nbsp; &amp;nbsp;nombre.&amp;nbsp; &amp;nbsp; &amp;nbsp; &amp;nbsp; &amp;nbsp; &amp;nbsp; &amp;nbsp;Presup.&amp;nbsp; &amp;nbsp; &amp;nbsp; &amp;nbsp;porcen.&lt;br&gt;001.&amp;nbsp; &amp;nbsp;campasdasd.&amp;nbsp; &amp;nbsp; &amp;nbsp; &amp;nbsp;200K€.&amp;nbsp; &amp;nbsp; &amp;nbsp; &amp;nbsp; 26%&lt;br&gt;002.&amp;nbsp; &amp;nbsp;asdasd a" style="shape=note;size=20;whiteSpace=wrap;html=1;align=left;" vertex="1" parent="1">
          <mxGeometry x="930" y="315" width="280" height="100" as="geometry" />
        </mxCell>
      </root>
    </mxGraphModel>
  </diagram>
  <diagram id="cl5gMLIeTKM-gZZkg8Dc" name="Page-2">
    <mxGraphModel dx="530" dy="400" grid="1" gridSize="10" guides="1" tooltips="1" connect="1" arrows="1" fold="1" page="1" pageScale="1" pageWidth="1654" pageHeight="1169" math="0" shadow="0">
      <root>
        <mxCell id="Uv8Xs4fprev_xQjExNfU-0" />
        <mxCell id="Uv8Xs4fprev_xQjExNfU-1" parent="Uv8Xs4fprev_xQjExNfU-0" />
      </root>
    </mxGraphModel>
  </diagram>
  <diagram id="fDBIiA0fJRE_Aa-UfiEN" name="Page-3">
    <mxGraphModel dx="530" dy="400" grid="1" gridSize="10" guides="1" tooltips="1" connect="1" arrows="1" fold="1" page="1" pageScale="1" pageWidth="1654" pageHeight="1169" math="0" shadow="0">
      <root>
        <mxCell id="cCiNa1wOiP0DJ2BcY-2C-0" />
        <mxCell id="cCiNa1wOiP0DJ2BcY-2C-1" parent="cCiNa1wOiP0DJ2BcY-2C-0" />
      </root>
    </mxGraphModel>
  </diagram>
  <diagram id="64gwNbzNewRs4y-YzJ9k" name="Page-4">
    <mxGraphModel dx="530" dy="400" grid="1" gridSize="10" guides="1" tooltips="1" connect="1" arrows="1" fold="1" page="1" pageScale="1" pageWidth="1654" pageHeight="1169" math="0" shadow="0">
      <root>
        <mxCell id="qoQN_8lVYj-Zet9xmBNA-0" />
        <mxCell id="qoQN_8lVYj-Zet9xmBNA-1" parent="qoQN_8lVYj-Zet9xmBNA-0" />
      </root>
    </mxGraphModel>
  </diagram>
</mxfile>
